<svg xmlns="http://www.w3.org/2000/svg" viewBox="0 0 957.45 48"><defs><style>.cls-1{fill:#1330ff;}.cls-2{fill:#fff;}</style></defs><g id="Capa_2" data-name="Capa 2"><g id="Capa_1-2" data-name="Capa 1"><rect class="cls-1" width="957.45" height="48"/><rect class="cls-2" x="807.94" y="19.16" width="2.62" height="16.4"/><path class="cls-2" d="M800.5,35.76c-5.51,0-10-3.72-10-8.3s4.48-8.31,10-8.31,10,3.73,10,8.31S806,35.76,800.5,35.76Zm0-14.42c-4.06,0-7.35,2.75-7.35,6.12s3.29,6.11,7.35,6.11,7.35-2.74,7.35-6.11S804.55,21.34,800.5,21.34Z"/><path class="cls-2" d="M858.36,35.57H842.74V24.46h15.62ZM845,33.71h11.13V26.33H845Z"/><path class="cls-2" d="M871.72,26.38H856.1V15.26h15.62Zm-13.38-1.87h11.14V17.13H858.34Z"/><rect class="cls-2" x="836" y="15.41" width="2.62" height="20.37"/><rect class="cls-2" x="767.85" y="18.63" width="2.62" height="16.82"/><rect class="cls-2" x="783.5" y="18.63" width="2.62" height="16.82"/><rect class="cls-2" x="768.55" y="26.93" width="17.57" height="2.18"/><polygon class="cls-2" points="814.55 19.18 831.32 19.18 831.32 21.66 818.08 33.59 831.65 33.59 831.65 35.8 814.79 35.8 814.79 33.23 828.27 21.2 814.52 21.2 814.55 19.18"/><circle class="cls-2" cx="37.36" cy="27.45" r="7.28"/><circle class="cls-2" cx="59.57" cy="27.45" r="7.28"/><circle class="cls-2" cx="81.78" cy="27.45" r="7.28"/></g></g></svg>