<svg xmlns="http://www.w3.org/2000/svg" viewBox="0 0 353.47 254.76"><defs><style>.cls-1{fill:#c8c8c8;}</style></defs><g id="Capa_2" data-name="Capa 2"><g id="Capa_1-2" data-name="Capa 1"><path class="cls-1" d="M122.15,54.87l-17.74-9.8L86.53,54.31l4-19.67-14-13.86,19.56-2.41L105,0l7.29,21.4,4.12,13.54ZM83.34,23.09l10.6,10.52-3,15,13.57-7,12.63,7-3.64-12.71-4.1-13.48L104.53,8.19,98.22,21.26Z"/><path class="cls-1" d="M121.64,37.72l-6.93-20.43L138,19.8Zm-2.42-16.81,3.67,10.82,8.65-9.49Z"/><path class="cls-1" d="M122.15,124.76,104.41,115l-17.88,9.23,4-19.67-14-13.85,19.56-2.41L105,69.88l7.29,21.4,4.12,13.54ZM83.34,93l10.6,10.52-3,15,13.57-7,12.63,7-3.64-12.72-4.1-13.47-4.82-14.15L98.22,91.14Z"/><path class="cls-1" d="M121.64,107.61l-6.93-20.43L138,89.69ZM119.22,90.8l3.67,10.81,8.65-9.49Z"/><path class="cls-1" d="M122.15,194.64l-17.74-9.8-17.88,9.24,4-19.68-14-13.85,19.56-2.41L105,139.77l7.29,21.4,4.12,13.53ZM83.34,162.86l10.6,10.52-3,14.94,13.57-7,12.63,7-3.64-12.72-4.1-13.47L104.53,148,98.22,161Z"/><path class="cls-1" d="M121.64,177.49l-6.93-20.43L138,159.57Zm-2.42-16.81,3.67,10.81,8.65-9.48Z"/><path class="cls-1" d="M122.15,254.76,104.41,245,86.53,254.2l4-19.67-14-13.86,19.56-2.41L105,199.89l7.29,21.4,4.12,13.54ZM83.34,223l10.6,10.52-3,14.95,13.57-7,12.63,7-3.64-12.71-4.1-13.48-4.82-14.14-6.31,13.07Z"/><path class="cls-1" d="M121.64,237.61l-6.93-20.42,23.27,2.5Zm-2.42-16.81,3.67,10.82,8.65-9.49Z"/><path class="cls-1" d="M45.56,54.87l-17.75-9.8L9.94,54.31l4-19.67L0,20.78l19.56-2.41L28.44,0l7.29,21.4,4.11,13.54ZM6.74,23.09l10.6,10.52-3.05,15,13.57-7,12.64,7L36.85,35.81,32.76,22.33,27.94,8.19,21.63,21.26Z"/><path class="cls-1" d="M45,37.72,38.11,17.29,61.38,19.8ZM42.63,20.91,46.3,31.73,55,22.24Z"/><path class="cls-1" d="M45.56,124.76,27.81,115,9.94,124.19l4-19.67L0,90.67l19.56-2.41,8.88-18.38,7.29,21.4,4.11,13.54ZM6.74,93l10.6,10.52-3.05,15,13.57-7,12.64,7-3.65-12.72L32.76,92.22,27.94,78.07,21.63,91.14Z"/><path class="cls-1" d="M45,107.61,38.11,87.18l23.27,2.51ZM42.63,90.8l3.67,10.81L55,92.12Z"/><path class="cls-1" d="M45.56,194.64l-17.75-9.8L9.94,194.08l4-19.68L0,160.55l19.56-2.41,8.88-18.37,7.29,21.4,4.11,13.53ZM6.74,162.86l10.6,10.52-3.05,14.94,13.57-7,12.64,7-3.65-12.72L32.76,162.1,27.94,148,21.63,161Z"/><path class="cls-1" d="M45,177.49l-6.93-20.43,23.27,2.51Zm-2.41-16.81,3.67,10.81L55,162Z"/><path class="cls-1" d="M45.56,254.76,27.81,245,9.94,254.2l4-19.67L0,220.67l19.56-2.41,8.88-18.37,7.29,21.4,4.11,13.54ZM6.74,223l10.6,10.52-3.05,14.95,13.57-7,12.64,7L36.85,235.7l-4.09-13.48-4.82-14.14-6.31,13.07Z"/><path class="cls-1" d="M45,237.61l-6.93-20.42,23.27,2.5ZM42.63,220.8l3.67,10.82L55,222.13Z"/><path class="cls-1" d="M267.68,54.87l-17.74-9.8-17.87,9.24,4-19.67-14-13.86,19.56-2.41L250.57,0l7.28,21.4L262,34.94ZM228.87,23.09l10.6,10.52-3.05,15,13.57-7,12.63,7L259,35.81l-4.1-13.48L250.07,8.19l-6.32,13.07Z"/><path class="cls-1" d="M267.17,37.72l-6.93-20.43,23.27,2.51Zm-2.41-16.81,3.67,10.82,8.65-9.49Z"/><path class="cls-1" d="M267.68,194.64l-17.74-9.8-17.87,9.24,4-19.68-14-13.85,19.56-2.41,8.88-18.37,7.28,21.4L262,174.7Zm-38.81-31.78,10.6,10.52-3.05,14.94,13.57-7,12.63,7L259,175.57l-4.1-13.47L250.07,148,243.75,161Z"/><path class="cls-1" d="M267.17,177.49l-6.93-20.43,23.27,2.51Zm-2.41-16.81,3.67,10.81,8.65-9.48Z"/><path class="cls-1" d="M267.68,254.76,249.94,245l-17.87,9.24,4-19.67-14-13.86,19.56-2.41,8.88-18.37,7.28,21.4L262,234.83ZM228.87,223l10.6,10.52-3.05,14.95,13.57-7,12.63,7L259,235.7l-4.1-13.48-4.81-14.14-6.32,13.07Z"/><path class="cls-1" d="M267.17,237.61l-6.93-20.42,23.27,2.5Zm-2.41-16.81,3.67,10.82,8.65-9.49Z"/><path class="cls-1" d="M337.64,54.87l-17.74-9.8L302,54.31l4-19.67-14-13.86,19.56-2.41L320.52,0l7.29,21.4,4.12,13.54ZM298.83,23.09l10.6,10.52-3.05,15,13.56-7,12.64,7-3.64-12.71-4.1-13.48L320,8.19l-6.31,13.07Z"/><path class="cls-1" d="M337.13,37.72,330.2,17.29l23.27,2.51Zm-2.42-16.81,3.67,10.82L347,22.24Z"/><path class="cls-1" d="M337.64,194.64l-17.74-9.8L302,194.08l4-19.68-14-13.85,19.56-2.41,8.87-18.37,7.29,21.4,4.12,13.53Zm-38.81-31.78,10.6,10.52-3.05,14.94,13.56-7,12.64,7-3.64-12.72-4.1-13.47L320,148,313.71,161Z"/><path class="cls-1" d="M337.13,177.49l-6.93-20.43,23.27,2.51Zm-2.42-16.81,3.67,10.81L347,162Z"/><path class="cls-1" d="M337.64,254.76,319.9,245,302,254.2l4-19.67-14-13.86,19.56-2.41,8.87-18.37,7.29,21.4,4.12,13.54ZM298.83,223l10.6,10.52-3.05,14.95,13.56-7,12.64,7-3.64-12.71-4.1-13.48L320,208.08l-6.31,13.07Z"/><path class="cls-1" d="M337.13,237.61l-6.93-20.42,23.27,2.5Zm-2.42-16.81,3.67,10.82,8.65-9.49Z"/><path class="cls-1" d="M198,54.83l-17.77-9.75-17.85,9.29,4-19.69-14-13.81,19.56-2.46L180.75,0l7.35,21.38,4.16,13.52ZM159.12,23.16l10.63,10.49-3,15,13.55-7.05L193,48.49l-3.68-12.7-4.14-13.46L180.28,8.2,174,21.28Z"/><path class="cls-1" d="M197.47,37.68l-7-20.41,23.28,2.44ZM195,20.88l3.7,10.8,8.63-9.51Z"/><path class="cls-1" d="M198.43,194.6l-17.77-9.75-17.85,9.29,4-19.69-14-13.81,19.55-2.47,8.82-18.4,7.35,21.38,4.16,13.53Zm-38.9-31.68,10.62,10.5-3,15,13.55-7.05,12.65,6.94-3.68-12.7-4.13-13.47L180.68,148l-6.28,13.08Z"/><path class="cls-1" d="M197.87,177.45l-7-20.41,23.28,2.44Zm-2.47-16.8,3.71,10.8,8.62-9.51Z"/><path class="cls-1" d="M198.6,254.72,180.83,245,163,254.26l4-19.69-14-13.81,19.55-2.46,8.83-18.4,7.35,21.38,4.15,13.52Zm-38.9-31.67,10.63,10.49-3,15,13.55-7.05,12.66,6.94-3.69-12.7-4.13-13.46-4.86-14.13-6.27,13.08Z"/><path class="cls-1" d="M198,237.57l-7-20.41,23.28,2.44Zm-2.46-16.8,3.7,10.8,8.62-9.51Z"/></g></g></svg>