<svg xmlns="http://www.w3.org/2000/svg" viewBox="0 0 185.2 263.57"><defs><style>.cls-1{fill:#0049fa;}</style></defs><g id="Capa_2" data-name="Capa 2"><g id="Capa_1-2" data-name="Capa 1"><path class="cls-1" d="M137.53,165.23,84.1,135.72,30.29,163.54l12.09-59.25L.36,62.58l58.9-7.25L86,0l22,64.44,12.39,40.76ZM20.66,69.52l31.92,31.69-9.19,45,40.86-21.12,38.05,21-11-38.29L99,67.24,84.49,24.66,65.48,64Z"/><path class="cls-1" d="M136,113.59,115.12,52.08l70.08,7.55ZM128.72,63l11.05,32.56,26-28.56Z"/><path class="cls-1" d="M4.79,237.87v8.57H14.86v3.9H4.79v9H16.12v3.9H0V234H16.12v3.9Z"/><path class="cls-1" d="M30.94,258.91l6.55-18.85h5.08l-8.82,23.13H28l-8.77-23.13h5.12Z"/><path class="cls-1" d="M67.21,253.41H49.54a6.38,6.38,0,0,0,2.06,4.45,6.48,6.48,0,0,0,4.53,1.68,5.61,5.61,0,0,0,5.46-3.24h5.16a10.39,10.39,0,0,1-3.8,5.23,11.13,11.13,0,0,1-6.82,2,11.85,11.85,0,0,1-5.94-1.49,10.64,10.64,0,0,1-4.11-4.2,12.77,12.77,0,0,1-1.5-6.28A13.13,13.13,0,0,1,46,245.33a10.21,10.21,0,0,1,4.08-4.18,12.07,12.07,0,0,1,6-1.47A11.83,11.83,0,0,1,62,241.11a10,10,0,0,1,4,4,12,12,0,0,1,1.43,5.94A14.09,14.09,0,0,1,67.21,253.41Zm-4.82-3.86a5.48,5.48,0,0,0-1.89-4.25,6.79,6.79,0,0,0-4.58-1.59,6.15,6.15,0,0,0-4.24,1.57,6.54,6.54,0,0,0-2.1,4.27Z"/><path class="cls-1" d="M88.65,240.81A8.17,8.17,0,0,1,92,244.17a11.11,11.11,0,0,1,1.21,5.38v13.64H88.5V250.26A6.76,6.76,0,0,0,87,245.49a5.55,5.55,0,0,0-4.24-1.65,5.62,5.62,0,0,0-4.27,1.65,6.68,6.68,0,0,0-1.57,4.77v12.93H72.08V240.06h4.79v2.64a7.86,7.86,0,0,1,3-2.22,9.63,9.63,0,0,1,3.88-.8A10.5,10.5,0,0,1,88.65,240.81Z"/><path class="cls-1" d="M104.91,244v12.81a2.46,2.46,0,0,0,.61,1.86,3,3,0,0,0,2.08.57h2.94v4h-3.78a7.24,7.24,0,0,1-5-1.51q-1.73-1.51-1.72-4.91V244H97.36v-3.9h2.73v-5.75h4.82v5.75h5.63V244Z"/><path class="cls-1" d="M119.06,262.08a10.74,10.74,0,0,1-4.15-4.2,12.67,12.67,0,0,1-1.52-6.28,12.36,12.36,0,0,1,1.56-6.25,10.7,10.7,0,0,1,4.24-4.2,13,13,0,0,1,12,0,10.64,10.64,0,0,1,4.24,4.2A12.36,12.36,0,0,1,137,251.6a12.12,12.12,0,0,1-1.6,6.26,11.07,11.07,0,0,1-4.34,4.22,12.6,12.6,0,0,1-6.07,1.49A11.89,11.89,0,0,1,119.06,262.08Zm9.38-3.55a6.7,6.7,0,0,0,2.63-2.65,8.5,8.5,0,0,0,1-4.28,8.71,8.71,0,0,0-1-4.26,6.47,6.47,0,0,0-2.56-2.62,7,7,0,0,0-3.44-.88,6.83,6.83,0,0,0-3.42.88,6.21,6.21,0,0,0-2.5,2.62,8.94,8.94,0,0,0-.93,4.26,8.16,8.16,0,0,0,1.91,5.78,6.35,6.35,0,0,0,4.81,2A7.07,7.07,0,0,0,128.44,258.53Z"/><path class="cls-1" d="M145.24,262.58a8.57,8.57,0,0,1-3.42-2.69,6.72,6.72,0,0,1-1.35-3.8h5a3.38,3.38,0,0,0,1.4,2.46,5.12,5.12,0,0,0,3.21,1,5.38,5.38,0,0,0,3.13-.78,2.34,2.34,0,0,0,1.11-2,2,2,0,0,0-1.23-1.93,23.06,23.06,0,0,0-3.93-1.39,37.76,37.76,0,0,1-4.24-1.39,7.31,7.31,0,0,1-2.83-2.05,5.4,5.4,0,0,1-1.2-3.66,5.65,5.65,0,0,1,1.09-3.37,7.24,7.24,0,0,1,3.13-2.42,11.66,11.66,0,0,1,4.68-.88,9.66,9.66,0,0,1,6.36,2,7.17,7.17,0,0,1,2.58,5.44h-4.78a3.48,3.48,0,0,0-1.26-2.48,4.76,4.76,0,0,0-3.07-.92,5,5,0,0,0-2.9.71,2.22,2.22,0,0,0-1,1.89,2,2,0,0,0,.67,1.56,4.78,4.78,0,0,0,1.64,1c.64.24,1.59.54,2.85.91a30.44,30.44,0,0,1,4.14,1.36,7.75,7.75,0,0,1,2.79,2,5.39,5.39,0,0,1,1.22,3.56,6,6,0,0,1-1.1,3.53,7.16,7.16,0,0,1-3.08,2.44,12.72,12.72,0,0,1-9.57-.11Z"/><path class="cls-1" d="M34,197.57v29.18H29.23V214H15.5v12.77H10.71V197.57H15.5v12.51H29.23V197.57Z"/><path class="cls-1" d="M40.16,208.9a10.57,10.57,0,0,1,9.47-5.66,10,10,0,0,1,4.76,1.07A9.74,9.74,0,0,1,57.65,207v-3.36h4.83v23.14H57.65V223.3A9.42,9.42,0,0,1,54.33,226a10.74,10.74,0,0,1-10.24-.44,10.85,10.85,0,0,1-3.93-4.28,13.22,13.22,0,0,1-1.45-6.23A12.91,12.91,0,0,1,40.16,208.9Zm16.5,2.1a6.94,6.94,0,0,0-2.58-2.68,6.73,6.73,0,0,0-3.44-.93,6.82,6.82,0,0,0-6,3.55,8.24,8.24,0,0,0-1,4.14,8.57,8.57,0,0,0,1,4.19,7,7,0,0,0,2.6,2.75,6.75,6.75,0,0,0,6.87,0,6.86,6.86,0,0,0,2.58-2.7,8.47,8.47,0,0,0,1-4.18A8.37,8.37,0,0,0,56.66,211Z"/><path class="cls-1" d="M73,222.84h10.5v3.91h-16v-3.91L78,207.52H67.47v-3.91h16v3.91Z"/><path class="cls-1" d="M93.33,195.68v31.07H88.55V195.68Z"/><path class="cls-1" d="M103.74,225.63a10.65,10.65,0,0,1-4.15-4.19,12.66,12.66,0,0,1-1.51-6.28,12.4,12.4,0,0,1,1.55-6.26,10.74,10.74,0,0,1,4.24-4.19,13,13,0,0,1,12,0,10.81,10.81,0,0,1,4.24,4.19,12.5,12.5,0,0,1,1.55,6.26,12.12,12.12,0,0,1-1.6,6.26,11,11,0,0,1-4.34,4.21,12.46,12.46,0,0,1-6.07,1.49A11.81,11.81,0,0,1,103.74,225.63Zm9.39-3.54a6.75,6.75,0,0,0,2.62-2.65,8.5,8.5,0,0,0,1-4.28,8.6,8.6,0,0,0-1-4.26,6.56,6.56,0,0,0-2.56-2.63,7.07,7.07,0,0,0-3.44-.88,7,7,0,0,0-3.42.88,6.3,6.3,0,0,0-2.5,2.63,8.94,8.94,0,0,0-.92,4.26,8.09,8.09,0,0,0,1.91,5.77,6.29,6.29,0,0,0,4.8,2A7.24,7.24,0,0,0,113.13,222.09Z"/><path class="cls-1" d="M130.53,225.63a10.68,10.68,0,0,1-4.16-4.19,12.66,12.66,0,0,1-1.51-6.28,12.5,12.5,0,0,1,1.55-6.26,10.81,10.81,0,0,1,4.24-4.19,13,13,0,0,1,12,0,10.74,10.74,0,0,1,4.24,4.19,12.4,12.4,0,0,1,1.55,6.26,12.22,12.22,0,0,1-1.59,6.26,11,11,0,0,1-4.35,4.21,12.42,12.42,0,0,1-6.06,1.49A11.76,11.76,0,0,1,130.53,225.63Zm9.38-3.54a6.77,6.77,0,0,0,2.63-2.65,8.5,8.5,0,0,0,1-4.28,8.71,8.71,0,0,0-1-4.26,6.62,6.62,0,0,0-2.56-2.63,7.14,7.14,0,0,0-3.45-.88,7,7,0,0,0-3.42.88,6.36,6.36,0,0,0-2.5,2.63,9.06,9.06,0,0,0-.92,4.26,8.13,8.13,0,0,0,1.91,5.77,6.31,6.31,0,0,0,4.81,2A7.2,7.2,0,0,0,139.91,222.09Z"/></g></g></svg>