<svg xmlns="http://www.w3.org/2000/svg" viewBox="0 0 361.42 80.62"><defs><style>.cls-1{font-size:28.5px;font-family:Poppins-Medium, Poppins;font-weight:500;}.cls-1,.cls-2{fill:#1e154c;}.cls-3{fill:#0049fa;}</style></defs><g id="Capa_2" data-name="Capa 2"><g id="Capa_1-2" data-name="Capa 1"><text class="cls-1" transform="translate(242.58 64.03)">Eventos </text><rect class="cls-2" x="104.24" y="12.19" width="6.81" height="51.24"/><path class="cls-2" d="M84.89,64.07a26,26,0,1,1,26-26A26,26,0,0,1,84.89,64.07Zm0-45.06A19.11,19.11,0,1,0,104,38.11,19.13,19.13,0,0,0,84.89,19Z"/><path class="cls-3" d="M235.35,63.48H194.73V28.74h40.62Zm-34.78-5.84h28.94V34.58H200.57Z"/><path class="cls-3" d="M270.08,34.74H229.46V0h40.62ZM235.3,28.9h28.94V5.84H235.3Z"/><rect class="cls-2" x="177.21" y="0.47" width="6.81" height="63.66"/><rect class="cls-2" y="10.52" width="6.81" height="52.58"/><rect class="cls-2" x="40.7" y="10.52" width="6.81" height="52.58"/><rect class="cls-2" x="1.83" y="36.45" width="45.68" height="6.81"/><polygon class="cls-2" points="121.42 12.26 165.03 12.26 165.03 19.98 130.62 57.29 165.91 57.29 165.91 64.19 122.06 64.19 122.06 56.14 157.1 18.54 121.36 18.54 121.42 12.26"/></g></g></svg>