<svg xmlns="http://www.w3.org/2000/svg" viewBox="0 0 298.33 108.82"><defs><style>.cls-1{fill:#1330ff;}.cls-2{fill:#c8c8c8;}</style></defs><g id="Capa_2" data-name="Capa 2"><g id="Capa_1-2" data-name="Capa 1"><rect class="cls-1" width="298.33" height="108.82"/><path class="cls-2" d="M30.22,39.54l-8.83-4.85-8.87,4.62,2-9.78L7.54,22.67l9.71-1.22,4.39-9.14,3.65,10.61,2.06,6.72ZM10.89,23.81,16.17,29l-1.49,7.42,6.73-3.5,6.28,3.45-1.82-6.31-2.06-6.69-2.41-7-3.12,6.5Z"/><path class="cls-2" d="M29.94,31,26.47,20.88,38,22.09Zm-1.23-8.35L30.55,28l4.28-4.73Z"/><path class="cls-2" d="M30.22,72.25l-8.83-4.84L12.52,72l2-9.78L7.54,55.38l9.71-1.22L21.64,45l3.65,10.62,2.06,6.72ZM10.89,56.52l5.28,5.21-1.49,7.43,6.73-3.51,6.28,3.45-1.82-6.31L23.81,56.1l-2.41-7-3.12,6.5Z"/><path class="cls-2" d="M29.94,63.73,26.47,53.6,38,54.81Zm-1.23-8.34,1.84,5.36L34.83,56Z"/><path class="cls-2" d="M30.22,102.35l-8.83-4.84-8.87,4.61,2-9.78L7.54,85.48l9.71-1.22,4.39-9.14,3.65,10.62,2.06,6.71ZM10.89,86.62l5.28,5.21-1.49,7.43,6.73-3.51,6.28,3.45-1.82-6.31L23.81,86.2l-2.41-7-3.12,6.5Z"/><path class="cls-2" d="M29.94,93.83,26.47,83.69,38,84.9Zm-1.23-8.35,1.84,5.37,4.28-4.72Z"/></g></g></svg>