<svg xmlns="http://www.w3.org/2000/svg" viewBox="0 0 240.6 226.65"><defs><style>.cls-1{fill:#00001b;}.cls-2{fill:#823aec;}</style></defs><g id="Capa_2" data-name="Capa 2"><g id="Capa_1-2" data-name="Capa 1"><path class="cls-1" d="M175.12,124.09H51V0H175.12ZM58.84,116.28H167.31V7.81H58.84Z"/><path class="cls-1" d="M156.67,105.63H69.49V18.45h87.18ZM76.6,98.52h73V25.57h-73Z"/><path class="cls-1" d="M133.08,81.91H91.37V40.2h41.71Z"/><path class="cls-1" d="M115.31,79.87a114.52,114.52,0,0,1,7.22,10.56l5.93-10.56Z"/><path class="cls-1" d="M2,203.94a14.17,14.17,0,0,1,5.42-5.31,15,15,0,0,1,7.49-1.91A15.31,15.31,0,0,1,23.2,199a13,13,0,0,1,5.26,6.49H22.71a7.61,7.61,0,0,0-3.15-3.44,9.27,9.27,0,0,0-4.66-1.14,10.25,10.25,0,0,0-5.16,1.3A9.16,9.16,0,0,0,6.19,206a13.2,13.2,0,0,0,0,11.34A9.25,9.25,0,0,0,9.74,221a10,10,0,0,0,5.16,1.33,9.27,9.27,0,0,0,4.66-1.14,7.61,7.61,0,0,0,3.15-3.44h5.75a12.94,12.94,0,0,1-5.26,6.47,15.38,15.38,0,0,1-8.3,2.26,15,15,0,0,1-7.51-1.91A14.19,14.19,0,0,1,2,219.3a15.81,15.81,0,0,1,0-15.36Z"/><path class="cls-1" d="M38.16,225.16A10.61,10.61,0,0,1,34,221a12.67,12.67,0,0,1-1.52-6.28,12.36,12.36,0,0,1,1.56-6.25,10.7,10.7,0,0,1,4.24-4.2,13,13,0,0,1,12,0,10.73,10.73,0,0,1,4.25,4.2,12.46,12.46,0,0,1,1.55,6.25,12.12,12.12,0,0,1-1.6,6.26,11,11,0,0,1-4.34,4.22,12.6,12.6,0,0,1-6.07,1.49A11.91,11.91,0,0,1,38.16,225.16Zm9.38-3.55A6.74,6.74,0,0,0,50.17,219a8.56,8.56,0,0,0,1-4.29,8.71,8.71,0,0,0-1-4.26,6.53,6.53,0,0,0-2.56-2.62,7,7,0,0,0-3.44-.88,6.86,6.86,0,0,0-3.42.88,6.27,6.27,0,0,0-2.5,2.62,8.94,8.94,0,0,0-.93,4.26,8.14,8.14,0,0,0,1.91,5.78,6.35,6.35,0,0,0,4.81,2A7.07,7.07,0,0,0,47.54,221.61Z"/><path class="cls-1" d="M77.39,203.89a8.11,8.11,0,0,1,3.38,3.36A11.11,11.11,0,0,1,82,212.63v13.64H77.25V213.34a6.72,6.72,0,0,0-1.56-4.77,5.54,5.54,0,0,0-4.24-1.65,5.61,5.61,0,0,0-4.26,1.65,6.68,6.68,0,0,0-1.57,4.77v12.93H60.83V203.14h4.79v2.64a7.86,7.86,0,0,1,3-2.22,9.63,9.63,0,0,1,3.88-.8A10.43,10.43,0,0,1,77.39,203.89Z"/><path class="cls-1" d="M91.58,225.66A8.63,8.63,0,0,1,88.16,223a6.66,6.66,0,0,1-1.34-3.8h5a3.37,3.37,0,0,0,1.41,2.45,5.08,5.08,0,0,0,3.21,1,5.4,5.4,0,0,0,3.13-.78,2.34,2.34,0,0,0,1.11-2,2,2,0,0,0-1.24-1.93,22.56,22.56,0,0,0-3.92-1.39,38,38,0,0,1-4.24-1.38,7.55,7.55,0,0,1-2.84-2.06,5.43,5.43,0,0,1-1.19-3.65,5.66,5.66,0,0,1,1.09-3.38,7.24,7.24,0,0,1,3.13-2.42,11.59,11.59,0,0,1,4.68-.88,9.72,9.72,0,0,1,6.36,2,7.17,7.17,0,0,1,2.58,5.44h-4.79A3.4,3.4,0,0,0,99,207.71a4.71,4.71,0,0,0-3.06-.92,5,5,0,0,0-2.9.71,2.23,2.23,0,0,0-1,1.89A2.05,2.05,0,0,0,92.7,211a4.58,4.58,0,0,0,1.63,1c.65.24,1.6.54,2.86.91a29.79,29.79,0,0,1,4.13,1.36,7.7,7.7,0,0,1,2.8,2,5.39,5.39,0,0,1,1.21,3.57,6,6,0,0,1-1.09,3.52,7.28,7.28,0,0,1-3.08,2.44,12.75,12.75,0,0,1-9.58-.11Z"/><path class="cls-1" d="M131.45,203.14v23.13h-4.79v-2.73a7.83,7.83,0,0,1-3,2.25,9.48,9.48,0,0,1-3.88.82,10.32,10.32,0,0,1-4.89-1.14,8,8,0,0,1-3.4-3.36,10.82,10.82,0,0,1-1.24-5.37v-13.6H115V216a6.72,6.72,0,0,0,1.55,4.76,5.52,5.52,0,0,0,4.24,1.66,5.59,5.59,0,0,0,4.27-1.66,6.63,6.63,0,0,0,1.57-4.76V203.14Z"/><path class="cls-1" d="M142.53,195.2v31.07h-4.79V195.2Z"/><path class="cls-1" d="M154.41,207v12.81a2.45,2.45,0,0,0,.61,1.87,3.07,3.07,0,0,0,2.08.56H160v4h-3.78a7.28,7.28,0,0,1-5-1.51q-1.73-1.51-1.72-4.91V207h-2.73v-3.9h2.73v-5.75h4.83v5.75H160V207Z"/><path class="cls-1" d="M168.56,225.16a10.64,10.64,0,0,1-4.16-4.2,12.66,12.66,0,0,1-1.51-6.28,12.46,12.46,0,0,1,1.55-6.25,10.77,10.77,0,0,1,4.24-4.2,13,13,0,0,1,12,0,10.7,10.7,0,0,1,4.24,4.2,12.36,12.36,0,0,1,1.55,6.25,12.22,12.22,0,0,1-1.59,6.26,11,11,0,0,1-4.35,4.22,12.53,12.53,0,0,1-6.06,1.49A11.86,11.86,0,0,1,168.56,225.16Zm9.38-3.55a6.72,6.72,0,0,0,2.62-2.64,8.46,8.46,0,0,0,1-4.29,8.71,8.71,0,0,0-1-4.26,6.59,6.59,0,0,0-2.56-2.62,7,7,0,0,0-3.45-.88,6.86,6.86,0,0,0-3.42.88,6.33,6.33,0,0,0-2.5,2.62,9.06,9.06,0,0,0-.92,4.26,8.14,8.14,0,0,0,1.91,5.78,6.34,6.34,0,0,0,4.81,2A7.09,7.09,0,0,0,177.94,221.61Z"/><path class="cls-1" d="M198.81,203.75a8.22,8.22,0,0,1,4.13-1v5h-1.22a5.85,5.85,0,0,0-4.26,1.43c-1,1-1.45,2.6-1.45,5v12.17h-4.78V203.14H196v3.36A7.39,7.39,0,0,1,198.81,203.75Z"/><path class="cls-1" d="M214.06,196.93l-9.27,4.57V198l9.27-5.12Zm-1.93,6.21v23.13h-4.78V203.14Z"/><path class="cls-1" d="M218.28,208.43a10.56,10.56,0,0,1,9.47-5.67,10.17,10.17,0,0,1,4.77,1.07,9.6,9.6,0,0,1,3.25,2.67v-3.36h4.83v23.13h-4.83v-3.44a9.54,9.54,0,0,1-3.32,2.73,10.3,10.3,0,0,1-4.78,1.09,10.18,10.18,0,0,1-5.46-1.53,11,11,0,0,1-3.93-4.29,13.22,13.22,0,0,1-1.44-6.23A12.86,12.86,0,0,1,218.28,208.43Zm16.5,2.1a7,7,0,0,0-2.58-2.69,6.79,6.79,0,0,0-3.44-.92,6.88,6.88,0,0,0-3.44.9,6.78,6.78,0,0,0-2.59,2.64,8.37,8.37,0,0,0-1,4.14,8.71,8.71,0,0,0,1,4.2,7,7,0,0,0,2.61,2.75,6.63,6.63,0,0,0,3.42.94,6.79,6.79,0,0,0,3.44-.92,7,7,0,0,0,2.58-2.71,8.47,8.47,0,0,0,1-4.18A8.33,8.33,0,0,0,234.78,210.53Z"/><rect class="cls-2" x="197.57" y="169.4" width="13.35" height="13.35"/><path class="cls-1" d="M70,160v29.18H65.21V176.42H51.48v12.76H46.7V160h4.78v12.51H65.21V160Z"/><path class="cls-1" d="M76.15,171.34a10.53,10.53,0,0,1,9.46-5.67,10.17,10.17,0,0,1,4.77,1.07,9.51,9.51,0,0,1,3.25,2.67v-3.36h4.83v23.13H93.63v-3.44a9.6,9.6,0,0,1-3.31,2.73,10.34,10.34,0,0,1-4.79,1.09A10.18,10.18,0,0,1,80.07,188a10.86,10.86,0,0,1-3.92-4.29,13.1,13.1,0,0,1-1.45-6.23A12.75,12.75,0,0,1,76.15,171.34Zm16.5,2.1a6.92,6.92,0,0,0-2.59-2.69,6.7,6.7,0,0,0-3.44-.92,6.88,6.88,0,0,0-3.44.9,6.69,6.69,0,0,0-2.58,2.64,8.26,8.26,0,0,0-1,4.14,8.63,8.63,0,0,0,1,4.2,6.91,6.91,0,0,0,2.6,2.75,6.68,6.68,0,0,0,3.42.94,6.79,6.79,0,0,0,3.44-.92,6.91,6.91,0,0,0,2.59-2.71,8.58,8.58,0,0,0,1-4.18A8.43,8.43,0,0,0,92.65,173.44Z"/><path class="cls-1" d="M109,185.28h10.49v3.9h-16v-3.9L114,170H103.46v-3.9h16V170Z"/><path class="cls-1" d="M129.32,158.11v31.07h-4.79V158.11Z"/><path class="cls-1" d="M139.73,188.07a10.7,10.7,0,0,1-4.16-4.2,12.66,12.66,0,0,1-1.51-6.28,12.46,12.46,0,0,1,1.55-6.25,10.77,10.77,0,0,1,4.24-4.2,13,13,0,0,1,12,0,10.7,10.7,0,0,1,4.24,4.2,12.36,12.36,0,0,1,1.55,6.25,12.22,12.22,0,0,1-1.59,6.26,11,11,0,0,1-4.35,4.22,12.53,12.53,0,0,1-6.06,1.49A11.86,11.86,0,0,1,139.73,188.07Zm9.38-3.55a6.81,6.81,0,0,0,2.63-2.64,8.56,8.56,0,0,0,1-4.29,8.71,8.71,0,0,0-1-4.26,6.59,6.59,0,0,0-2.56-2.62,7,7,0,0,0-3.45-.88,6.86,6.86,0,0,0-3.42.88,6.33,6.33,0,0,0-2.5,2.62,9.06,9.06,0,0,0-.92,4.26,8.16,8.16,0,0,0,1.91,5.78,6.34,6.34,0,0,0,4.81,2A7.09,7.09,0,0,0,149.11,184.52Z"/><path class="cls-1" d="M166.51,188.07a10.68,10.68,0,0,1-4.15-4.2,12.67,12.67,0,0,1-1.52-6.28,12.36,12.36,0,0,1,1.56-6.25,10.7,10.7,0,0,1,4.24-4.2,13,13,0,0,1,12,0,10.77,10.77,0,0,1,4.24,4.2,12.46,12.46,0,0,1,1.55,6.25,12.12,12.12,0,0,1-1.6,6.26,11.07,11.07,0,0,1-4.34,4.22,12.57,12.57,0,0,1-6.07,1.49A11.91,11.91,0,0,1,166.51,188.07Zm9.39-3.55a6.78,6.78,0,0,0,2.62-2.64,9.73,9.73,0,0,0,0-8.55,6.53,6.53,0,0,0-2.56-2.62,7,7,0,0,0-3.44-.88,6.86,6.86,0,0,0-3.42.88,6.27,6.27,0,0,0-2.5,2.62,8.94,8.94,0,0,0-.93,4.26,8.16,8.16,0,0,0,1.91,5.78,6.35,6.35,0,0,0,4.81,2A7.13,7.13,0,0,0,175.9,184.52Z"/></g></g></svg>