<svg xmlns="http://www.w3.org/2000/svg" viewBox="0 0 253.44 49.06"><defs><style>.cls-1{font-size:17.34px;font-family:Poppins-Medium, Poppins;font-weight:500;}.cls-1,.cls-2{fill:#fff;}</style></defs><g id="Capa_2" data-name="Capa 2"><g id="Capa_1-2" data-name="Capa 1"><text class="cls-1" transform="translate(147.59 38.97)">Consultoria </text><rect class="cls-2" x="63.44" y="7.42" width="4.15" height="31.19"/><path class="cls-2" d="M51.67,39A15.8,15.8,0,1,1,67.46,23.2,15.81,15.81,0,0,1,51.67,39Zm0-27.42A11.63,11.63,0,1,0,63.3,23.2,11.63,11.63,0,0,0,51.67,11.57Z"/><path class="cls-2" d="M143.23,38.63H118.51V17.49h24.72Zm-21.17-3.55h17.62V21H122.06Z"/><path class="cls-2" d="M164.37,21.14H139.65V0h24.72ZM143.2,17.59h17.62v-14H143.2Z"/><rect class="cls-2" x="107.85" y="0.29" width="4.15" height="38.74"/><rect class="cls-2" y="6.4" width="4.15" height="32"/><rect class="cls-2" x="24.77" y="6.4" width="4.15" height="32"/><rect class="cls-2" x="1.11" y="22.19" width="27.8" height="4.15"/><polygon class="cls-2" points="73.9 7.46 100.44 7.46 100.44 12.16 79.5 34.87 100.97 34.87 100.97 39.07 74.29 39.07 74.29 34.17 95.61 11.29 73.86 11.29 73.9 7.46"/></g></g></svg>