<svg xmlns="http://www.w3.org/2000/svg" viewBox="0 0 125.01 242.77"><defs><style>.cls-1{fill:#c8c8c8;}</style></defs><g id="Capa_2" data-name="Capa 2"><g id="Capa_1-2" data-name="Capa 1"><path class="cls-1" d="M125,15.39H112V31.48H95.66V15.19h16.09V0H78.54V15.39H62.45V31.48H46.16V15.19H62.25V0H29V15.39H13V31.48H0V53.84H12.75V37.75H29V54H13V70.13H0V97.32H12.75V81.23H29V97.52H13v16.09H0v25H12.75V122.56H29v16.29H13v16.09H0v28.39H12.75V167.25H29v16.29H13v16.08H0v27.19H12.75V210.73H29V227H13v15.75h33.2v-16H62.25V210.73H78.54V227H62.45v15.75H95.66v-16h16.09V210.73H125V183.54H112v16.08H95.66V183.33h16.09V167.25H125v-28.4H112v16.09H95.66v-16.3h16.09V122.56H125v-25H112v16.09H95.66V97.32h16.09V81.23H125V54H112V70.13H95.66V53.84h16.09V37.75H125ZM78.54,183.54H62.45v16.08H46.16V183.33H62.25V167.25H78.54Zm0-44.69H62.45v16.09H46.16v-16.3H62.25V122.56H78.54Zm0-41.33H62.45v16.09H46.16V97.32H62.25V81.23H78.54Zm0-43.48H62.45V70.13H46.16V53.84H62.25V37.75H78.54Z"/><rect class="cls-1" x="111.95" y="227.02" width="13.06" height="15.75"/><rect class="cls-1" width="12.75" height="15.19"/></g></g></svg>