<svg xmlns="http://www.w3.org/2000/svg" viewBox="0 0 549.39 130.57"><defs><style>.cls-1{fill:#1e154c;}.cls-2{fill:#0049fa;}</style></defs><g id="Capa_2" data-name="Capa 2"><g id="Capa_1-2" data-name="Capa 1"><rect class="cls-1" x="212.04" y="24.8" width="13.86" height="104.23"/><path class="cls-1" d="M172.69,130.34a52.81,52.81,0,1,1,52.8-52.81A52.86,52.86,0,0,1,172.69,130.34Zm0-91.68a38.88,38.88,0,1,0,38.87,38.87A38.91,38.91,0,0,0,172.69,38.66Z"/><path class="cls-2" d="M478.74,129.13H396.12V58.46h82.62ZM408,117.26h58.88V70.33H408Z"/><path class="cls-2" d="M549.39,70.67H466.77V0h82.62ZM478.64,58.8h58.88V11.87H478.64Z"/><rect class="cls-1" x="360.48" y="0.96" width="13.86" height="129.49"/><rect class="cls-1" y="21.39" width="13.86" height="106.95"/><rect class="cls-1" x="82.79" y="21.39" width="13.86" height="106.95"/><rect class="cls-1" x="3.73" y="74.16" width="92.92" height="13.86"/><polygon class="cls-1" points="247 24.94 335.71 24.94 335.71 40.64 265.71 116.54 337.49 116.54 337.49 130.57 248.3 130.57 248.3 114.2 319.56 37.72 246.88 37.72 247 24.94"/></g></g></svg>