<svg xmlns="http://www.w3.org/2000/svg" viewBox="0 0 178.89 244.3"><defs><style>.cls-1{fill:#00001b;}.cls-2{fill:#f99b10;}</style></defs><g id="Capa_2" data-name="Capa 2"><g id="Capa_1-2" data-name="Capa 1"><path class="cls-1" d="M47.58,214.74l-11,29.18H31.08l-11-29.18H25.2L33.85,239l8.69-24.27Z"/><path class="cls-1" d="M51.82,216.84a3,3,0,1,1,4.32,0,2.91,2.91,0,0,1-2.14.88A3,3,0,0,1,51.82,216.84Zm4.53,3.95v23.13H51.57V220.79Z"/><path class="cls-1" d="M62.5,226.08a10.55,10.55,0,0,1,4-4.18A10.67,10.67,0,0,1,72,220.41a11,11,0,0,1,4.47,1A9.23,9.23,0,0,1,80,224V212.85h4.83v31.07H80v-3.49a8.92,8.92,0,0,1-3.26,2.77A10,10,0,0,1,72,244.3a10.26,10.26,0,0,1-5.52-1.54,10.83,10.83,0,0,1-4-4.28,13.22,13.22,0,0,1-1.45-6.23A12.84,12.84,0,0,1,62.5,226.08ZM79,228.17a6.94,6.94,0,0,0-2.58-2.68,6.7,6.7,0,0,0-3.44-.93,7,7,0,0,0-3.45.91A6.83,6.83,0,0,0,67,228.11a8.23,8.23,0,0,0-1,4.14,8.63,8.63,0,0,0,1,4.2,7,7,0,0,0,2.61,2.75,6.63,6.63,0,0,0,3.42.94,6.79,6.79,0,0,0,3.44-.92A7,7,0,0,0,79,236.51a9.28,9.28,0,0,0,0-8.34Z"/><path class="cls-1" d="M112.15,234.14H94.47a6.39,6.39,0,0,0,6.59,6.13,5.59,5.59,0,0,0,5.46-3.24h5.16a10.37,10.37,0,0,1-3.79,5.23,11.16,11.16,0,0,1-6.83,2,11.85,11.85,0,0,1-5.94-1.49,10.64,10.64,0,0,1-4.11-4.2,12.76,12.76,0,0,1-1.49-6.28A13.08,13.08,0,0,1,91,226.05,10.16,10.16,0,0,1,95,221.88a12.12,12.12,0,0,1,6-1.47,11.7,11.7,0,0,1,5.84,1.43,10,10,0,0,1,4,4,12.08,12.08,0,0,1,1.42,5.94A15.32,15.32,0,0,1,112.15,234.14Zm-4.83-3.87a5.47,5.47,0,0,0-1.89-4.24,6.77,6.77,0,0,0-4.58-1.59A6.15,6.15,0,0,0,96.61,226a6.64,6.64,0,0,0-2.1,4.26Z"/><path class="cls-1" d="M121.13,242.81a10.84,10.84,0,0,1-4.16-4.2,12.77,12.77,0,0,1-1.51-6.28,12.36,12.36,0,0,1,1.56-6.25,10.7,10.7,0,0,1,4.24-4.2,13,13,0,0,1,12,0,10.7,10.7,0,0,1,4.24,4.2,12.36,12.36,0,0,1,1.56,6.25,12.12,12.12,0,0,1-1.6,6.26,11.07,11.07,0,0,1-4.34,4.22,12.6,12.6,0,0,1-6.07,1.49A11.89,11.89,0,0,1,121.13,242.81Zm9.38-3.55a6.7,6.7,0,0,0,2.63-2.65,8.5,8.5,0,0,0,1-4.28,8.71,8.71,0,0,0-1-4.26,6.47,6.47,0,0,0-2.56-2.62,7,7,0,0,0-3.44-.89,6.88,6.88,0,0,0-3.43.89,6.25,6.25,0,0,0-2.49,2.62,8.94,8.94,0,0,0-.93,4.26,8.11,8.11,0,0,0,1.91,5.77,6.32,6.32,0,0,0,4.81,2A7.07,7.07,0,0,0,130.51,239.26Z"/><path class="cls-1" d="M42.66,177V206.2H37.87V193.44H24.14V206.2H19.36V177h4.78v12.51H37.87V177Z"/><path class="cls-1" d="M48.81,188.36a10.56,10.56,0,0,1,9.47-5.67A10.13,10.13,0,0,1,63,183.76a9.74,9.74,0,0,1,3.26,2.66v-3.35h4.82V206.2H66.3v-3.44A9.5,9.5,0,0,1,63,205.48,10.69,10.69,0,0,1,52.73,205a10.76,10.76,0,0,1-3.92-4.28,13.1,13.1,0,0,1-1.45-6.23A12.72,12.72,0,0,1,48.81,188.36Zm16.5,2.09a6.94,6.94,0,0,0-2.58-2.68,6.74,6.74,0,0,0-3.45-.93,6.82,6.82,0,0,0-6,3.55,8.24,8.24,0,0,0-1,4.14,8.63,8.63,0,0,0,1,4.2,7,7,0,0,0,2.6,2.75,6.68,6.68,0,0,0,3.42.94,6.83,6.83,0,0,0,3.45-.92,7,7,0,0,0,2.58-2.71,9.28,9.28,0,0,0,0-8.34Z"/><path class="cls-1" d="M81.66,202.29h10.5v3.91h-16v-3.91L86.66,187H76.12v-3.9h16V187Z"/><path class="cls-1" d="M102,175.13V206.2H97.19V175.13Z"/><path class="cls-1" d="M112.39,205.09a10.74,10.74,0,0,1-4.15-4.2,12.67,12.67,0,0,1-1.52-6.28,12.36,12.36,0,0,1,1.56-6.25,10.7,10.7,0,0,1,4.24-4.2,13,13,0,0,1,12,0,10.73,10.73,0,0,1,4.25,4.2,12.46,12.46,0,0,1,1.55,6.25,12.12,12.12,0,0,1-1.6,6.26,11.07,11.07,0,0,1-4.34,4.22,12.6,12.6,0,0,1-6.07,1.49A11.89,11.89,0,0,1,112.39,205.09Zm9.38-3.55a6.7,6.7,0,0,0,2.63-2.65,8.5,8.5,0,0,0,1-4.28,8.71,8.71,0,0,0-1-4.26,6.47,6.47,0,0,0-2.56-2.62,7,7,0,0,0-3.44-.89,6.87,6.87,0,0,0-3.42.89,6.21,6.21,0,0,0-2.5,2.62,8.94,8.94,0,0,0-.93,4.26,8.11,8.11,0,0,0,1.91,5.77,6.32,6.32,0,0,0,4.81,2A7.07,7.07,0,0,0,121.77,201.54Z"/><path class="cls-1" d="M139.18,205.09a10.77,10.77,0,0,1-4.16-4.2,12.66,12.66,0,0,1-1.51-6.28,12.46,12.46,0,0,1,1.55-6.25,10.77,10.77,0,0,1,4.24-4.2,13,13,0,0,1,12,0,10.77,10.77,0,0,1,4.24,4.2,12.46,12.46,0,0,1,1.55,6.25,12.22,12.22,0,0,1-1.59,6.26,11.1,11.1,0,0,1-4.35,4.22,12.53,12.53,0,0,1-6.06,1.49A11.86,11.86,0,0,1,139.18,205.09Zm9.38-3.55a6.68,6.68,0,0,0,2.62-2.65,8.5,8.5,0,0,0,1-4.28,8.71,8.71,0,0,0-1-4.26,6.49,6.49,0,0,0-2.57-2.62,7,7,0,0,0-3.44-.89,6.87,6.87,0,0,0-3.42.89,6.27,6.27,0,0,0-2.5,2.62,9.06,9.06,0,0,0-.92,4.26,8.07,8.07,0,0,0,1.91,5.77,6.29,6.29,0,0,0,4.81,2A7.09,7.09,0,0,0,148.56,201.54Z"/><path class="cls-1" d="M152.24,119.62,32.62,152.24,0,32.62,119.62,0Zm-114.14,23,104.56-28.51L114.15,9.58,9.58,38.1Z"/><polyline class="cls-2" points="47.52 54.78 110.54 66.82 62.65 109.51"/><polygon class="cls-1" points="139.47 46.46 163.31 23.02 178.89 80.17 146.05 70.6 139.47 46.46"/></g></g></svg>