<svg xmlns="http://www.w3.org/2000/svg" viewBox="0 0 1028.05 77.62"><defs><style>.cls-1{fill:#f6f7f9;}.cls-2{fill:#16ceb9;}.cls-3{fill:#1e154c;}.cls-4{fill:#0049fa;}.cls-5{font-size:13.64px;fill:#e24747;font-family:MyriadPro-Regular, Myriad Pro;}.cls-6{letter-spacing:0em;}.cls-7{letter-spacing:-0.01em;}.cls-8{letter-spacing:-0.01em;}.cls-9{letter-spacing:0em;}.cls-10{fill:#735fa4;}.cls-11{fill:none;stroke:#735fa4;stroke-miterlimit:10;}</style></defs><g id="Capa_2" data-name="Capa 2"><g id="Capa_1-2" data-name="Capa 1"><rect class="cls-1" width="1028.05" height="77.62"/><rect class="cls-2" x="178.21" y="17.99" width="827.05" height="42.89"/><rect class="cls-3" x="68.92" y="25.99" width="3.17" height="23.85"/><path class="cls-3" d="M59.92,50.14A12.09,12.09,0,1,1,72,38.05,12.1,12.1,0,0,1,59.92,50.14Zm0-21a8.9,8.9,0,1,0,8.89,8.89A8.9,8.9,0,0,0,59.92,29.16Z"/><path class="cls-4" d="M130,49.86H111V33.69H130Zm-16.19-2.72h13.47V36.41H113.76Z"/><path class="cls-4" d="M146.11,36.48h-18.9V20.31h18.9Zm-16.19-2.71H143.4V23H129.92Z"/><rect class="cls-3" x="102.89" y="20.53" width="3.17" height="29.63"/><rect class="cls-3" x="20.4" y="25.21" width="3.17" height="24.47"/><rect class="cls-3" x="39.35" y="25.21" width="3.17" height="24.47"/><rect class="cls-3" x="21.25" y="37.28" width="21.26" height="3.17"/><polygon class="cls-3" points="76.92 26.02 97.22 26.02 97.22 29.61 81.2 46.98 97.63 46.98 97.63 50.19 77.22 50.19 77.22 46.44 93.53 28.94 76.89 28.94 76.92 26.02"/><text class="cls-5" transform="translate(208.68 40.84)"><tspan class="cls-6">R</tspan><tspan x="7.39" y="0">ecursos</tspan></text><text class="cls-5" transform="translate(317.62 40.84)">Buscar <tspan class="cls-7" x="40.36" y="0">t</tspan><tspan x="44.79" y="0">odos los </tspan><tspan class="cls-8" x="94.76" y="0">r</tspan><tspan class="cls-9" x="99.09" y="0">ecursos</tspan></text><polygon class="cls-10" points="278.75 36.84 285.73 36.84 282.24 40.78 278.75 36.84"/><line class="cls-11" x1="302.79" y1="28.32" x2="302.79" y2="47.73"/></g></g></svg>