<svg xmlns="http://www.w3.org/2000/svg" viewBox="0 0 108.99 79.86"><defs><style>.cls-1{fill:#e24747;}.cls-2{fill:#f99b10;}</style></defs><g id="Capa_2" data-name="Capa 2"><g id="Capa_1-2" data-name="Capa 1"><path class="cls-1" d="M0,47.74c.41.28,5.36,5.51,5.36,5.51l5.92-5.51,9.21,16.54,35.22.66L72.49,28.49,92.3,23.81,90.1,16,66.71,22.3,51.58,56.55l-27.23.14L12.65,34.54Z"/><rect class="cls-1" x="23.4" y="69.26" width="10.6" height="10.6"/><rect class="cls-1" x="44.32" y="69.26" width="10.6" height="10.6"/><polygon class="cls-1" points="39.05 16.43 23.49 31.45 15.65 23.3 31.21 8.28 39.05 16.43"/><polygon class="cls-1" points="51.39 33.18 39.22 35.55 37.09 24.45 49.26 22.08 51.39 33.18"/><polygon class="cls-1" points="45.09 54.64 24.42 48.26 27.78 37.47 48.45 43.85 45.09 54.64"/><rect class="cls-1" x="84.36" y="33.16" width="24.62" height="3.77"/><rect class="cls-1" x="74.83" y="46.56" width="24.62" height="3.77"/><rect class="cls-1" x="66.21" y="59.96" width="24.62" height="3.77"/><circle class="cls-2" cx="61.45" cy="17.54" r="17.54"/></g></g></svg>