<svg xmlns="http://www.w3.org/2000/svg" viewBox="0 0 220.49 245.12"><defs><style>.cls-1{fill:#16ceb9;}.cls-2{fill:#f99b10;}.cls-3{fill:#0049fa;}.cls-4{fill:#e24747;}</style></defs><g id="Capa_2" data-name="Capa 2"><g id="Capa_1-2" data-name="Capa 1"><path class="cls-1" d="M28.23,234.12l-6.72-11.67H17.86v11.67H13.07V204.94H23.15a12.52,12.52,0,0,1,5.68,1.18,8.09,8.09,0,0,1,3.49,3.15,8.56,8.56,0,0,1,1.15,4.41,8.75,8.75,0,0,1-1.65,5.18A8.41,8.41,0,0,1,26.71,222l7.23,12.09ZM17.86,218.63h5.29a5.57,5.57,0,0,0,4.05-1.34,4.84,4.84,0,0,0,1.36-3.61,4.69,4.69,0,0,0-1.34-3.55,5.72,5.72,0,0,0-4.07-1.28H17.86Z"/><path class="cls-1" d="M39.46,216.28a10.53,10.53,0,0,1,9.46-5.67,10.17,10.17,0,0,1,4.77,1.07,9.74,9.74,0,0,1,3.25,2.67V211h4.83v23.13H56.94v-3.44a9.6,9.6,0,0,1-3.31,2.73A10.76,10.76,0,0,1,43.38,233a10.83,10.83,0,0,1-3.92-4.28A13.14,13.14,0,0,1,38,222.45,12.75,12.75,0,0,1,39.46,216.28Zm16.5,2.1a6.92,6.92,0,0,0-2.59-2.69,6.79,6.79,0,0,0-3.44-.92,6.88,6.88,0,0,0-3.44.9,6.72,6.72,0,0,0-2.58,2.65,8.22,8.22,0,0,0-1,4.13,8.58,8.58,0,0,0,1,4.2,6.91,6.91,0,0,0,2.6,2.75,6.79,6.79,0,0,0,6.86,0A6.84,6.84,0,0,0,56,226.71a8.57,8.57,0,0,0,1-4.17A8.45,8.45,0,0,0,56,218.38Zm-1-13.6-9.28,4.57v-3.52L55,200.7Z"/><path class="cls-1" d="M76.17,211.7a10.22,10.22,0,0,1,4.74-1.09,10.5,10.5,0,0,1,9.45,5.67,13,13,0,0,1,1.43,6.17,13.37,13.37,0,0,1-1.43,6.24A10.64,10.64,0,0,1,86.43,233a10.34,10.34,0,0,1-5.52,1.53,10.08,10.08,0,0,1-4.7-1.07,10.46,10.46,0,0,1-3.36-2.67v14.36H68.07V211h4.78v3.4A9.79,9.79,0,0,1,76.17,211.7Zm9.76,6.62a6.83,6.83,0,0,0-2.6-2.65,7,7,0,0,0-3.47-.9,6.83,6.83,0,0,0-6,3.61,8.34,8.34,0,0,0-1,4.16,8.46,8.46,0,0,0,1,4.17,6.83,6.83,0,0,0,9.49,2.69,7,7,0,0,0,2.6-2.75,8.58,8.58,0,0,0,1-4.2A8.22,8.22,0,0,0,85.93,218.32Z"/><path class="cls-1" d="M96.78,207A3.06,3.06,0,0,1,99,201.8a2.91,2.91,0,0,1,2.14.88,3.14,3.14,0,0,1,0,4.36,2.91,2.91,0,0,1-2.14.89A3,3,0,0,1,96.78,207Zm4.54,4v23.13H96.53V211Z"/><path class="cls-1" d="M107.47,216.28a10.53,10.53,0,0,1,9.51-5.67,10.82,10.82,0,0,1,4.47,1,9.1,9.1,0,0,1,3.5,2.62V203.06h4.83v31.06H125v-3.48a8.9,8.9,0,0,1-3.25,2.77,10.08,10.08,0,0,1-4.77,1.09,10.39,10.39,0,0,1-5.52-1.53,10.8,10.8,0,0,1-3.94-4.28,13.14,13.14,0,0,1-1.45-6.24A12.75,12.75,0,0,1,107.47,216.28Zm16.5,2.1a6.92,6.92,0,0,0-2.59-2.69,6.79,6.79,0,0,0-3.44-.92,6.76,6.76,0,0,0-6,3.55,8.22,8.22,0,0,0-1,4.13,8.58,8.58,0,0,0,1,4.2,7,7,0,0,0,2.6,2.75,6.79,6.79,0,0,0,6.86,0,6.84,6.84,0,0,0,2.59-2.71,8.57,8.57,0,0,0,1-4.17A8.45,8.45,0,0,0,124,218.38Z"/><path class="cls-1" d="M140.19,233a10.61,10.61,0,0,1-4.15-4.2,12.62,12.62,0,0,1-1.51-6.27,12.37,12.37,0,0,1,1.55-6.26,10.7,10.7,0,0,1,4.24-4.2,13,13,0,0,1,12,0,10.77,10.77,0,0,1,4.24,4.2,12.47,12.47,0,0,1,1.55,6.26,12.09,12.09,0,0,1-1.6,6.25,11,11,0,0,1-4.34,4.22,12.57,12.57,0,0,1-6.07,1.49A11.91,11.91,0,0,1,140.19,233Zm9.39-3.55a6.78,6.78,0,0,0,2.62-2.64,8.55,8.55,0,0,0,1-4.28,8.67,8.67,0,0,0-1-4.27,6.53,6.53,0,0,0-2.56-2.62,7,7,0,0,0-3.44-.88,6.86,6.86,0,0,0-3.42.88,6.27,6.27,0,0,0-2.5,2.62,9,9,0,0,0-.92,4.27,8.09,8.09,0,0,0,1.91,5.77,6.28,6.28,0,0,0,4.8,2A7.13,7.13,0,0,0,149.58,229.46Z"/><path class="cls-1" d="M39.43,167.23V196.4H34.65V183.64H20.92V196.4H16.13V167.23h4.79v12.51H34.65V167.23Z"/><path class="cls-1" d="M45.58,178.56a10.75,10.75,0,0,1,4-4.18,10.63,10.63,0,0,1,5.52-1.49A10.17,10.17,0,0,1,59.82,174a9.84,9.84,0,0,1,3.25,2.67v-3.36H67.9V196.4H63.07V193a9.54,9.54,0,0,1-3.32,2.73,10.74,10.74,0,0,1-10.24-.44A10.93,10.93,0,0,1,45.58,191a13.26,13.26,0,0,1-1.44-6.24A12.86,12.86,0,0,1,45.58,178.56Zm16.5,2.1a6.85,6.85,0,0,0-12-.06,8.33,8.33,0,0,0-1,4.13,8.69,8.69,0,0,0,1,4.2,7,7,0,0,0,2.61,2.75A6.76,6.76,0,0,0,62.08,189a8.46,8.46,0,0,0,1-4.17A8.37,8.37,0,0,0,62.08,180.66Z"/><path class="cls-1" d="M78.44,192.5H88.93v3.9h-16v-3.9l10.54-15.33H72.89v-3.9h16v3.9Z"/><path class="cls-1" d="M98.76,165.34V196.4H94V165.34Z"/><path class="cls-1" d="M109.17,195.29a10.64,10.64,0,0,1-4.16-4.2,13.59,13.59,0,0,1,0-12.53,10.77,10.77,0,0,1,4.24-4.2,13,13,0,0,1,12,0,10.77,10.77,0,0,1,4.24,4.2,12.37,12.37,0,0,1,1.55,6.26,12.18,12.18,0,0,1-1.59,6.25,11,11,0,0,1-4.35,4.22,12.53,12.53,0,0,1-6.06,1.49A11.86,11.86,0,0,1,109.17,195.29Zm9.38-3.55a6.65,6.65,0,0,0,2.62-2.64,8.42,8.42,0,0,0,1-4.28,8.78,8.78,0,0,0-1-4.27,6.59,6.59,0,0,0-2.56-2.62,7,7,0,0,0-3.45-.88,6.86,6.86,0,0,0-3.42.88,6.33,6.33,0,0,0-2.5,2.62,9.13,9.13,0,0,0-.92,4.27,8.13,8.13,0,0,0,1.91,5.77,6.31,6.31,0,0,0,4.81,2A7.1,7.1,0,0,0,118.55,191.74Z"/><path class="cls-1" d="M136,195.29a10.61,10.61,0,0,1-4.15-4.2,12.6,12.6,0,0,1-1.52-6.27,12.37,12.37,0,0,1,1.56-6.26,10.7,10.7,0,0,1,4.24-4.2,13,13,0,0,1,12,0,10.64,10.64,0,0,1,4.24,4.2,12.37,12.37,0,0,1,1.56,6.26,12.09,12.09,0,0,1-1.6,6.25,11,11,0,0,1-4.34,4.22,12.6,12.6,0,0,1-6.07,1.49A11.89,11.89,0,0,1,136,195.29Zm9.38-3.55A6.68,6.68,0,0,0,148,189.1a8.52,8.52,0,0,0,1-4.28,8.78,8.78,0,0,0-1-4.27,6.53,6.53,0,0,0-2.56-2.62,7,7,0,0,0-3.44-.88,6.83,6.83,0,0,0-3.42.88,6.27,6.27,0,0,0-2.5,2.62,9,9,0,0,0-.93,4.27,8.13,8.13,0,0,0,1.91,5.77,6.32,6.32,0,0,0,4.81,2A7.07,7.07,0,0,0,145.33,191.74Z"/><path class="cls-1" d="M0,79.85C.83,80.4,10.85,91,10.85,91l12-11.13,18.64,33.44,71.25,1.34,34-73.74,40.07-9.47-4.45-15.86L135,28.36l-30.61,69.3-55.1.27L25.6,53.13Z"/><rect class="cls-1" x="47.35" y="123.36" width="21.45" height="21.45"/><rect class="cls-1" x="89.67" y="123.36" width="21.45" height="21.45"/><polygon class="cls-2" points="79 16.48 47.52 46.88 31.67 30.39 63.15 0 79 16.48"/><polygon class="cls-3" points="103.96 50.38 79.35 55.18 75.04 32.72 99.66 27.92 103.96 50.38"/><polygon class="cls-4" points="91.22 93.8 49.4 80.89 56.2 59.06 98.01 71.96 91.22 93.8"/><rect class="cls-4" x="170.68" y="50.33" width="49.81" height="7.63"/><rect class="cls-4" x="151.39" y="77.45" width="49.81" height="7.63"/><rect class="cls-4" x="133.95" y="104.57" width="49.81" height="7.63"/></g></g></svg>