<svg xmlns="http://www.w3.org/2000/svg" viewBox="0 0 220.49 259.27"><defs><style>.cls-1{font-size:41.98px;fill:#c8c8c8;font-family:Poppins-Medium, Poppins;font-weight:500;}.cls-2{fill:#16ceb9;}.cls-3{fill:#f99b10;}.cls-4{fill:#0049fa;}.cls-5{fill:#e24747;}</style></defs><g id="Capa_2" data-name="Capa 2"><g id="Capa_1-2" data-name="Capa 1"><text class="cls-1" transform="translate(9.75 234.83)">Rápido </text><text class="cls-1" transform="translate(12.82 197.11)">Hazloo </text><path class="cls-2" d="M0,79.85C.83,80.4,10.85,91,10.85,91l12-11.13,18.64,33.44,71.25,1.34,34-73.74,40.07-9.47-4.45-15.86L135,28.36l-30.61,69.3-55.1.27L25.6,53.13Z"/><rect class="cls-2" x="47.35" y="123.36" width="21.45" height="21.45"/><rect class="cls-2" x="89.67" y="123.36" width="21.45" height="21.45"/><polygon class="cls-3" points="79 16.48 47.52 46.88 31.67 30.39 63.15 0 79 16.48"/><polygon class="cls-4" points="103.96 50.38 79.35 55.18 75.04 32.72 99.66 27.92 103.96 50.38"/><polygon class="cls-5" points="91.22 93.8 49.4 80.89 56.2 59.06 98.01 71.96 91.22 93.8"/><rect class="cls-5" x="170.68" y="50.33" width="49.81" height="7.63"/><rect class="cls-5" x="151.39" y="77.45" width="49.81" height="7.63"/><rect class="cls-5" x="133.95" y="104.57" width="49.81" height="7.63"/></g></g></svg>