<svg xmlns="http://www.w3.org/2000/svg" viewBox="0 0 478.86 107.79"><defs><style>.cls-1{fill:#e24747;}.cls-2{font-size:28.5px;fill:#1e154c;font-family:Poppins-Medium, Poppins;font-weight:500;}.cls-3{fill:#16ceb9;}.cls-4{fill:#f99b10;}</style></defs><g id="Capa_2" data-name="Capa 2"><g id="Capa_1-2" data-name="Capa 1"><rect class="cls-1" x="54.12" width="424.74" height="107.44"/><text class="cls-2" transform="translate(335.47 81.01)">Rapido </text><rect class="cls-3" x="197.13" y="29.17" width="6.81" height="51.24"/><path class="cls-3" d="M177.78,81.05a26,26,0,1,1,26-26A26,26,0,0,1,177.78,81.05Zm0-45.06a19.11,19.11,0,1,0,19.11,19.1A19.13,19.13,0,0,0,177.78,36Z"/><path class="cls-4" d="M328.23,80.46H287.62V45.72h40.61Zm-34.78-5.84H322.4V51.56H293.45Z"/><path class="cls-4" d="M363,51.72H322.35V17H363Zm-34.78-5.84h28.94V22.82H328.19Z"/><rect class="cls-3" x="270.1" y="17.45" width="6.81" height="63.66"/><rect class="cls-3" x="92.89" y="27.5" width="6.81" height="52.58"/><rect class="cls-3" x="133.59" y="27.5" width="6.81" height="52.58"/><rect class="cls-3" x="114.15" y="34" width="6.81" height="45.68" transform="translate(174.4 -60.72) rotate(90)"/><polygon class="cls-3" points="214.31 29.24 257.92 29.24 257.92 36.96 223.51 74.27 258.8 74.27 258.8 81.17 214.95 81.17 214.95 73.12 249.99 35.52 214.25 35.52 214.31 29.24"/><rect class="cls-1" x="26.81" y="0.35" width="20.24" height="107.44"/><rect class="cls-4" y="0.35" width="20.24" height="107.44"/></g></g></svg>