<svg xmlns="http://www.w3.org/2000/svg" viewBox="0 0 125.71 29.88"><defs><style>.cls-1{fill:#fff;}</style></defs><g id="Capa_2" data-name="Capa 2"><g id="Capa_1-2" data-name="Capa 1"><rect class="cls-1" x="48.52" y="5.67" width="3.17" height="23.85"/><path class="cls-1" d="M39.51,29.82A12.08,12.08,0,1,1,51.6,17.74,12.09,12.09,0,0,1,39.51,29.82Zm0-21a8.9,8.9,0,1,0,8.9,8.89A8.9,8.9,0,0,0,39.51,8.85Z"/><path class="cls-1" d="M109.54,29.55H90.64V13.38h18.9ZM93.36,26.83h13.47V16.09H93.36Z"/><path class="cls-1" d="M125.71,16.17h-18.9V0h18.9Zm-16.19-2.72H123V2.72H109.52Z"/><rect class="cls-1" x="82.48" y="0.22" width="3.17" height="29.63"/><rect class="cls-1" y="4.9" width="3.17" height="24.47"/><rect class="cls-1" x="18.94" y="4.9" width="3.17" height="24.47"/><rect class="cls-1" x="0.85" y="16.97" width="21.26" height="3.17"/><polygon class="cls-1" points="56.52 5.71 76.82 5.71 76.82 9.3 60.8 26.67 77.22 26.67 77.22 29.88 56.82 29.88 56.82 26.13 73.12 8.63 56.49 8.63 56.52 5.71"/></g></g></svg>