<svg xmlns="http://www.w3.org/2000/svg" xmlns:xlink="http://www.w3.org/1999/xlink" viewBox="0 0 156.72 92.23"><defs><style>.cls-1{fill:none;}.cls-2,.cls-3{fill:#fff;}.cls-3{stroke-miterlimit:10;stroke:url(#Unnamed_Pattern);}</style><pattern id="Unnamed_Pattern" data-name="Unnamed Pattern" width="155.45" height="91.12" patternTransform="translate(-118.05 -17.88)" patternUnits="userSpaceOnUse" viewBox="0 0 155.45 91.12"><rect class="cls-1" width="155.45" height="91.12"/><path class="cls-2" d="M0,45.32c.59.39,7.65,7.85,7.65,7.85l8.44-7.85L29.23,68.9l50.23.95,23.93-52,28.26-6.67L128.51,0,95.15,9,73.57,57.88l-38.84.19L18.05,26.49Z"/><rect class="cls-2" x="33.38" y="76" width="15.12" height="15.12"/><rect class="cls-2" x="63.22" y="76" width="15.12" height="15.12"/><rect class="cls-2" x="120.33" y="24.51" width="35.12" height="5.38"/><rect class="cls-2" x="106.73" y="43.63" width="35.12" height="5.38"/><rect class="cls-2" x="94.43" y="62.75" width="35.12" height="5.38"/></pattern></defs><g id="Capa_2" data-name="Capa 2"><g id="Capa_1-2" data-name="Capa 1"><path class="cls-3" d="M.77,45.93c.59.4,7.66,7.85,7.66,7.85l8.43-7.85L30,69.51l50.22.95,23.94-52,28.25-6.67L129.28.61l-33.35,9L74.35,58.49l-38.85.2L18.82,27.1Z"/><rect class="cls-3" x="34.15" y="76.61" width="15.12" height="15.12"/><rect class="cls-3" x="63.99" y="76.61" width="15.12" height="15.12"/><rect class="cls-3" x="121.11" y="25.13" width="35.12" height="5.38"/><rect class="cls-3" x="107.5" y="44.24" width="35.12" height="5.38"/><rect class="cls-3" x="95.21" y="63.36" width="35.12" height="5.38"/></g></g></svg>