<svg xmlns="http://www.w3.org/2000/svg" viewBox="0 0 123.27 58.89"><defs><style>.cls-1{fill:#f99b10;}.cls-2{fill:#fff;}</style></defs><g id="Capa_2" data-name="Capa 2"><g id="Capa_1-2" data-name="Capa 1"><path class="cls-1" d="M102,42.59A21.3,21.3,0,0,0,102,0H21.3a21.3,21.3,0,1,0,0,42.59"/><path class="cls-1" d="M80.85,42.41c.77-.12,21.45,16.48,21.45,16.48L109,41.41"/><rect class="cls-2" x="53.65" y="15.77" width="1.9" height="14.32"/><path class="cls-2" d="M48.24,30.27A7.25,7.25,0,1,1,55.49,23,7.26,7.26,0,0,1,48.24,30.27Zm0-12.59A5.34,5.34,0,1,0,53.58,23,5.35,5.35,0,0,0,48.24,17.68Z"/><path class="cls-2" d="M90.29,30.11H78.94V20.4H90.29Zm-9.72-1.63h8.09V22H80.57Z"/><path class="cls-2" d="M100,22.08H88.64V12.37H100Zm-9.72-1.63h8.09V14H90.27Z"/><rect class="cls-2" x="74.04" y="12.5" width="1.9" height="17.79"/><rect class="cls-2" x="24.51" y="15.31" width="1.9" height="14.69"/><rect class="cls-2" x="35.89" y="15.31" width="1.9" height="14.69"/><rect class="cls-2" x="25.03" y="22.56" width="12.77" height="1.9"/><polygon class="cls-2" points="58.45 15.79 70.64 15.79 70.64 17.95 61.02 28.38 70.88 28.38 70.88 30.31 58.63 30.31 58.63 28.06 68.42 17.55 58.43 17.55 58.45 15.79"/></g></g></svg>